<?xml version="1.0" encoding="UTF-8" standalone="no"?>
<svg
   xmlns="http://www.w3.org/2000/svg"
   width="24"
   height="24"
   viewBox="0 0 90 90">
  <g transform="translate(67.857146,-84.50504)">
    <g transform="matrix(0,-1,-1,0,373.50506,516.50504)">
      <g transform="matrix(0,-1,-1,0,1394.3622,441.36221)">
        <path
           d="M 45,18 C 36.198348,18 27.955481,19.166507 20.269531,21.498047 12.645562,23.879387 5.8884283,27.065867 0,30.935547 L 0,32 0,35.785156 0,58 0,61 c 2.7479334,2.3933 5.901132,4.363138 9.4589844,5.835938 C 13.04576,68.277937 16.892562,69 21,69 25.107436,69 28.940193,68.277937 32.498047,66.835938 36.084826,65.363138 39.252066,63.3933 42,61 c 0.392562,-0.3263 0.843303,-0.590116 1.351562,-0.791016 0.512396,-0.1967 1.061661,-0.294922 1.648438,-0.294922 0.586775,0 1.134314,0.09802 1.642578,0.294922 C 47.154975,60.409884 47.607438,60.6737 48,61 c 2.747933,2.3933 5.901131,4.363138 9.458984,5.835938 C 61.04576,68.277937 64.892562,69 69,69 73.107436,69 76.940193,68.277937 80.498047,66.835938 84.084826,65.363138 87.252066,63.3933 90,61 L 90,58 90,35.785156 90,32 90,30.935547 C 84.111571,27.065867 77.324627,23.879387 69.638672,21.498047 62.014699,19.166507 53.801649,18 45,18 Z M 24,39.091797 c 2.933883,0 5.671568,0.492469 8.212891,1.480469 2.561986,1.0088 4.824299,2.333056 6.787109,3.972656 -1.96281,1.6395 -4.225123,2.963756 -6.787109,3.972656 C 29.671568,49.505478 26.933883,50 24,50 21.066116,50 18.317843,49.505478 15.755859,48.517578 13.214536,47.508678 10.962809,46.184422 9,44.544922 c 1.962809,-1.6396 4.214536,-2.963856 6.755859,-3.972656 2.561984,-0.988 5.310257,-1.480469 8.244141,-1.480469 z m 42,0 c 2.933883,0 5.671568,0.492469 8.212891,1.480469 2.561986,1.0088 4.824299,2.333056 6.787109,3.972656 -1.96281,1.6395 -4.225123,2.963756 -6.787109,3.972656 C 71.671568,49.505478 68.933883,50 66,50 63.066116,50 60.317843,49.505478 57.755859,48.517578 55.214536,47.508678 52.962809,46.184422 51,44.544922 c 1.962809,-1.6396 4.214536,-2.963856 6.755859,-3.972656 2.561984,-0.988 5.310257,-1.480469 8.244141,-1.480469 z"
           transform="translate(3.5e-6,962.3622)" />
      </g>
    </g>
  </g>
</svg>
